<mxfile host="app.diagrams.net" modified="2023-05-02T04:09:17.114Z" agent="Mozilla/5.0 (Windows NT 10.0; Win64; x64) AppleWebKit/537.36 (KHTML, like Gecko) Chrome/111.0.0.0 Safari/537.36 OPR/97.0.0.0" etag="kFrXFt4AzqGfYk9uGk2C" version="21.2.3" type="github">
  <diagram id="C5RBs43oDa-KdzZeNtuy" name="Page-1">
    <mxGraphModel dx="1009" dy="561" grid="1" gridSize="10" guides="1" tooltips="1" connect="1" arrows="1" fold="1" page="1" pageScale="1" pageWidth="1169" pageHeight="827" math="0" shadow="0">
      <root>
        <mxCell id="WIyWlLk6GJQsqaUBKTNV-0" />
        <mxCell id="WIyWlLk6GJQsqaUBKTNV-1" parent="WIyWlLk6GJQsqaUBKTNV-0" />
        <mxCell id="LiQchtuFsr472v_ydP5Z-29" style="edgeStyle=orthogonalEdgeStyle;rounded=0;orthogonalLoop=1;jettySize=auto;html=1;exitX=0.5;exitY=1;exitDx=0;exitDy=0;" edge="1" parent="WIyWlLk6GJQsqaUBKTNV-1" source="LiQchtuFsr472v_ydP5Z-1" target="LiQchtuFsr472v_ydP5Z-2">
          <mxGeometry relative="1" as="geometry" />
        </mxCell>
        <mxCell id="LiQchtuFsr472v_ydP5Z-1" value="Плотность бурового&lt;br&gt;раствора" style="shape=offPageConnector;whiteSpace=wrap;html=1;" vertex="1" parent="WIyWlLk6GJQsqaUBKTNV-1">
          <mxGeometry x="318.63" y="6.25" width="150" height="60" as="geometry" />
        </mxCell>
        <mxCell id="LiQchtuFsr472v_ydP5Z-26" style="edgeStyle=orthogonalEdgeStyle;rounded=0;orthogonalLoop=1;jettySize=auto;html=1;exitX=0;exitY=0.5;exitDx=0;exitDy=0;exitPerimeter=0;" edge="1" parent="WIyWlLk6GJQsqaUBKTNV-1" source="LiQchtuFsr472v_ydP5Z-2">
          <mxGeometry relative="1" as="geometry">
            <mxPoint x="130" y="215" as="targetPoint" />
            <mxPoint x="170" y="150" as="sourcePoint" />
          </mxGeometry>
        </mxCell>
        <mxCell id="LiQchtuFsr472v_ydP5Z-62" style="edgeStyle=orthogonalEdgeStyle;rounded=0;orthogonalLoop=1;jettySize=auto;html=1;entryX=0.585;entryY=-0.025;entryDx=0;entryDy=0;entryPerimeter=0;" edge="1" parent="WIyWlLk6GJQsqaUBKTNV-1" source="LiQchtuFsr472v_ydP5Z-2" target="LiQchtuFsr472v_ydP5Z-49">
          <mxGeometry relative="1" as="geometry" />
        </mxCell>
        <mxCell id="LiQchtuFsr472v_ydP5Z-2" value="&lt;div&gt;Горные породы&lt;/div&gt;&lt;div&gt;неустойчивы?&lt;/div&gt;&lt;div&gt;(глина, аргиллит,&lt;/div&gt;&lt;div&gt;соль)&lt;/div&gt;" style="strokeWidth=2;html=1;shape=mxgraph.flowchart.decision;whiteSpace=wrap;" vertex="1" parent="WIyWlLk6GJQsqaUBKTNV-1">
          <mxGeometry x="293.63" y="86.25" width="200" height="110" as="geometry" />
        </mxCell>
        <mxCell id="LiQchtuFsr472v_ydP5Z-8" value="" style="rounded=1;whiteSpace=wrap;html=1;absoluteArcSize=1;arcSize=14;strokeWidth=2;" vertex="1" parent="WIyWlLk6GJQsqaUBKTNV-1">
          <mxGeometry x="17" y="215" width="230" height="90" as="geometry" />
        </mxCell>
        <mxCell id="LiQchtuFsr472v_ydP5Z-12" value="" style="shape=image;verticalLabelPosition=bottom;labelBackgroundColor=default;verticalAlign=top;aspect=fixed;imageAspect=0;image=data:image/png,iVBORw0KGgoAAAANSUhEUgAAAM8AAABLCAYAAADXoNORAAAKJ0lEQVR4nO2dz2sTTRjHv3l5ryrbelNBujkoCi01VdEiKJik1puWxFvBgt0iHmytbYoU8SBJSwUPJjl4ESUpXnqwse1BwVSoaZAELHpwgwePG1v1D5j3UGbfbH42u8lufjwfWDCzs9sna747M888z4yNMcZAEETV/GO1AQTRrJB4CEInJB6C0AmJhyB0QuIhCJ2QeAhCJyQegtAJiccEbDZbycPtdiMWi1ltoim43e6Sz6Gvrw+BQMBqE6uCxGMCsiyr/06lUmCMgTGG5eVlJBIJDA4OtoWAXr16BYfDAQAIhULqc0ilUgCA+/fvY2ZmxkoTq4MRpgCACYJQUB4KhRgA5vF4LLBqbwBgLperJvdyuVwMAEulUpryVCpV8hk1KtTymEA6nQYAOJ3OgnNHjhwBAOzs7Jhqk1UkEgkIgoDu7m5N+eHDhwEA29vbVpilCxKPCWxsbAAALl68WHDu48ePAIBTp06ZapMVpNNpbG9vF32JfPr0CQDUbl0zQOIxgffv3wMAzp49qynPZDIIBoMAgJs3b5pul9mUe4nMzs4CAMbHx021yQgkHhNIJpOarko2m0U0GoXD4cD29jYikQi6urostrL+8O5r7kskFouhr68PyWQSkiTB6/VaZV7V/Gu1Aa1OJpNRvW02m00tF0URXq8XExMTbSEcAFhbWwMA9PT0qGWCIMDpdOLJkyfo7++3yjR9WO2xaHUikQgDwPx+v9WmVARA1cdevXCyLNfUa9cIUMtTZz58+AAAOHfunMWWVIaVyIu02WxwuVxYWVnRfe9EIgEAuHTpku57NBo05qkzvKty/Phxiy2xFv4SOXnypMWW1A4STx3h4x2Hw4HOzk6rzbEU/hI5c+aMxZbUDhJPHeFdlXLCCYfDJeO9Ojo6VA8VAAQCAdjtdvVcbijL2NiYGiuXTqfVem63G5lMpn5fcg/kOk0qvUS8Xm/RZ1HqOdjtdk1oU6nred2aYvWgq1VRFIU5HA4GgDkcjrJ1XS5XwUAaAAuFQupnv9/PBEFg8XicMfa/I8Ln82nuI4qiWibLMhNF0fAgHQYH+pIkqQ4GRVHK1lUUheX+LJHnbAmFQprnwJ9L7n3zr4nH40VDgoxC4qkTPIYLe/BKlRIP/4EwxpggCBqhMMaYx+PRxIK5XK4CofLYOSMYEY/f7y/w0JVDlmXNd8gXgiiKmpcKr7O8vFzyGi6eWkPdtjqxsrKiRg0zxgx5qoDdmK+BgQFNWW9vb0EsWH636MSJEwCA9fV13X/biP2Tk5Oa58AqrHT27ds39PX1lTwvyzJGR0c13TEA+PLliy77jECu6jZh3759VpuwJ968eYMLFy6UrROPxxtiQpVaniZBEAS8fftWU/bjxw8IgqApy2azms9bW1sAUBDF3Ihks1msra3h8uXLZevx72Q1JJ4GIJvNan703DuW+yORJAnBYFDtfq2vryMYDGJqakpzr2QyqdbJZDKYm5uDz+er91eoCQsLC7h3715Zj5zP58P09LTmO+Z6FPlz/P37t3rNz58/AUDjsasJRgZMxQaD/BBFkUmSVNG70u7wAT0AJkkSY2x3UMzLcj1EPp+PCYKgPt/8kB/ubePOimJOhkal1O+IH9xhoSgKkyRJfQ4Oh0PjWPF4POo1kUiEpVIptW6tE+0MuyC4GzI3E1KWZbW8kpuWqB3FvHbNAvLc7hxFURr2exnuth09ehSANkejq6sLz549gyAISCaTtW8uiZakWE5TZ2cnhoeHLbCmMobF8/nzZwCFiV7Abtg9APz9+9fonyH2yPfv3602QReCIJRMzeAp2o2GjTFjW4x0dHQAAH79+qUpz2azOHjwIABAUZS2j+2qN+FwGKOjowAAj8eDaDRqsUWtj6GWp1xO+sLCAoBdL1EjCKfcmmHljmbh1q1b6iQkCcccDE2Sfv36FYB2vJNOp/H48WMsLi7C4XDg0aNHxiysEUZn+AkiH0MtD8/RyA2X6Onpwc7ODiKRCDY3Nxui1SGIemCo5eE5GnqGTbFYDE+fPm3ZFqGZunztiMGhvnoTXVSbk64oCvP7/WqYPvIiYetNfpTzXg+96PlbdJh31ALdLQ9P9NrrYn1utxudnZ0YGhrCw4cPcezYMVNXjTG7hWO0T3LLo1s8fLxz/vz5inWj0SiGhoYwOTmp988RRMOh22HAxzv79++vWHdpaQkulwszMzOqY2FsbKwgApjDU2wDgQCi0Sg6OjrUawiiUdAlnmg0quak//nzp2J9WZYRDocxMDAAxhji8Tii0SgePHhQtD6fJX/9+jWA3QnYeDyOYDDYdHu4EC1MtYMkntKae+RGtRYD+D9imFMpPRgoDBT0eDwNGSBItCdVtzz9/f0FabV7yerjAaScvaQHHzhwQPO5t7cXq6ur1ZpMEHXBlGS4cttGVJsenJ85SZhHIBAoG75U6XyrYYp4RFHEu3fvNGVbW1tFNznKJTcbENiN4D59+nRdbCQqMzk5CUmSAOy+xHK3i+TnedaqIAjqdomtiiniuX37NlZXVxEOhwHsxr9NT09rUoi5dy2XxcVFNb12fX0di4uLuHPnjvrZZrMZWhWGqB7e/ZYkqeg8He9qe73eplg3wQimiKe/vx+RSARzc3Ow2Wy4du0apqamKs772O12OJ1O2Gw2DA8PIxKJ4MqVK2aYTJSA52/lL4PF4T2MSivgtATW+itKAzTHthzNzPLysiZcyuPxsEgkwkRRZLIsF71GEISyawHwe5W6vpWg1XPalLGxMQwODsLpdEJRFDWc6MaNG5BluWiXrFz+FgB1zWhRFNtjwy6r1VsKFJkbImoDn2PLn0fjc3il5tL4+tiVjnb5f2vIlofvSxkMBlUnA1EbstkspqenIQgC7t69qznHo0VKbUDF4xnj8XjBXB9jDC6XC0CbjHeAxm15iPrAW49irQNfh69UqghfT64UaKPxDmMN2vIQ9WNpaQkAcPXq1YJz3FNWbAMqvscOb13y4cuLlVsFp9Ug8bQZfGLz0KFDmvJMJoPV1VWIolg0db5S/tbGxgYAlHQmtCIknjYjmUwCKFz4fX5+HkDpUKpK+Vu85cldDKbVIfG0GVwcuVstxmIxbG5uAtgNvi1Gpfwtfp4H/LYDJJ42Y2hoCADw/PlzALu5WS9evMD4+DiA4lve5+Zv8R0HqjnfsljtsSDMhS+cDmh3WuAL8+fvalEpf0tPflerYHi5XaI5SKfTGBkZwcrKSlGHgN1uhyAIaveNqAx129oEPpAvJpxYLAZZljEyMmK2WU0NiacN4DFpxYSTzWYxOzsLQRBw/fp1C6xrXkg8bUB3dzdEUUQikVCDN4FdUbndbsiyjJcvX9LSyFVCY542IZPJYH5+Hmtra6pnTBRFOJ1OTExMtE1UQC0h8RCETqjbRhA6IfEQhE5IPAShExIPQeiExEMQOiHxEIROSDwEoRMSD0HohMRDEDoh8RCETkg8BKGT/wD6EhmOqWhE1wAAAABJRU5ErkJggg==;" vertex="1" parent="WIyWlLk6GJQsqaUBKTNV-1">
          <mxGeometry x="69.03999999999996" y="225" width="110.4" height="40" as="geometry" />
        </mxCell>
        <mxCell id="LiQchtuFsr472v_ydP5Z-13" value="" style="shape=image;verticalLabelPosition=bottom;labelBackgroundColor=default;verticalAlign=top;aspect=fixed;imageAspect=0;image=data:image/png,iVBORw0KGgoAAAANSUhEUgAAAykAAAB5CAYAAAA9DG4AAAAgAElEQVR4nO3d/2sb9/0H8Jc/fH7t1qvy01pG8TnQ0hWH9pyM1B64kJzrjNFBG9lhv6UsOW0Mmrl2pqyUkaWJtGyB0VlycWCMdpJLQktBxkkghkoJy6wNiTWkEJ8oZelPUtVmf8B9fvBHt7v3vSWdpPfp3pKfDxBYF+v0jvzW+/1+vb+OWJZlEQAAAAAAgCT+J+wEAAAAAAAAOCFIAQAAAAAAqSBIAQAAAAAAqSBIAQAAAAAAqSBIAQAAAAAAqSBIAQAAAAAAqSBIAQAAAAAAqSBIAQAAAAAAqSBIAQAAAAAAqSBIAQAAAAAAqSBIAQAAAAAAqSBIAQAAAAAAqSBIAQAAAAAAqSBIAQAAAAAAqSBIAQAAAAAAqSBIAQAAAAAAqSBIAQAAAAAAqSBIAQAAAAAAqSBIAQAAAAAAqSBIAQAAAAAAqSBIAQAAAAAAqSBIAQAAAAAAqSBIAQAAAAAAqSBIAQAAAAAAqSBIAQAAAAAAqSBIAQAAAAAAqSBIAQAAAAAAqSBIAQAAAAAAqSBIAQAAAAAAqSBIAQAAAAAAqSBIAQAAAAAAqSBIAQAAAAAAqSBIAQAAAAAAqSBIAQAAAAAAqSBIAQAAAAAAqSBIAQAAAAAAqSBIAXBYX1+nWCxGExMTYScFADqwsrJCExMTtLKyQrVaLezkAABAj0Ysy7LCTgRA2LLZLP36178m0zTta6VSicbHx0NMFQD4NTExQcVi0X5uGAYtLCzQ6OhoiKkCAIBuYSQFdrVCoUBjY2M0Pz9vByi6rlMmk0GAAiCRsbExGhkZoUKhwP331dVVMgyDFEUhIqJUKkWqqlIymexnModapVKxR6yy2WzYyQGALgzSqDOCFNi1kskkTU1N2cGJqqqUz+dpY2OD5ubmQk4dADQkk0nXKCfP+Pg4LS8v0/3798kwDPv60tISTUxMUKVSCTqZQ6tSqVAsFiNVVenkyZNULBbpo48+CjtZANCF1dVVKhaLdPLkSdqzZw/FYjF5y0crBETU1UNRFEvXdcswDCuTyVjVajWM5MMQMAzDlbcMw+gpP1WrVSuTyVjRaNRSVdV1b13XrXg8bpVKJYH/AzHS6bSlKIoVUlGwK+RyOcswDEvTNFe+0DTNMgzDyuVyYSfRwzRNS9d1i4isRCLR8/0a9xLxyOfzvt4zl8vZebtRf8j4HZRZtVq14vG4px6Ox+OWaZq+7oH6HkTJ5/Nd5ydVVe26WMYyt59KpZJlGIarfBRV1osWSsuk0aDrtbJSFEXKDxXkxgYoveYhZ0O/3UPXdd+Ve5Dy+bwnmAKxeJ9xqwrUb+M7SLxGqWxBSiffn1KphEClS6VSyRNYx+PxjoMF1PcgkmmanjKq26Bltwcr1WrV0x7SNE2KNkpDqC0T9sMhIisajXJ/N5/PW+l0mlvpa5qGXhbwhS3cDMPo6X5sHlZV1Uqn01Y+n7fy+bwVj8c9AUyYDSVnDzmbJhCHbZQ1ep8b+aJZWZbJZEJLc7NgO51O93xvkUFKp9hARVVV1Bdt8IK7XoNo1PcgEi9v8MqqarXatC4W0QYYBjKPOocapCQSCU+G8dNTwivs4vF4H1IMgyyXy7nyjK7rPd2PN2WMxzRNT4+koih97a3g9ZiI/Czgv9gApVmjqtnfpN+9e7lcruWIj4gRnjCDlMb/EfndHzZA0TRNSIMF9T2IxCtT2pVV1WrVUxeHUebKSNZR51CDFN6Qnd8KkVepyjREBXKpVqueL2Av+SWdTnsaoq2USqXQAoNEItF2OhoabWKwf+d2+axarXrKMkVR+tJTXCqVfAUPooMUTdPsEaVuHt1iG7thjlrJyjTNwBoqqO9BJF6w4Ydpmp7XqaoacGoHg4yjzqEGKbwK0u8HwjYS/fbKwO4kcp49G/D4rWx5PYJBNpQymYyncm/WY44gRQy2TPOTz3jz9YOcgmCapicvKorSNJAVHaSEldd4HRVhV8CyYRt+ItdJob4Hkdj80K6j0CkajQZSzg0D2UadQ92CeHt72/Vc0zSKRCK+XvvMM894rt28eVNIumC4VCoVevvtt+3niqLQ8ePHu77f5cuXqV6v289VVaXJycm2r1tYWPBc+/3vf991OpopFAo0MzNjn/2iKAolEgkyTZO2t7cpn88Lf0/Y+dyvXbvmuvbKK6+0fd3c3Bypquq6lkqlhO9fX6vVKJlMkqZplEqliGjnTKBcLkdfffUVffXVV6TrutD3lEkkEnFtTVyv1+ny5cshpkguyWTSdRhmPB73Va75hfoeROFtl3v48GHfr3/uuec8127fvt1TmobF7Oysq5y8du1aqGcihRak1Go1z773ExMTvl8vsvCE4Xbx4kXXc8MwfFeOPBcuXHA9j0ajvl43OjpKmqa5rhWLReH7k9++fdtuLEejUSoWi7S4uGifvD3I351yuWwf6jcxMUHlcjnsJNneeecd13NN03yfds7LQzdu3BCSLqcLFy5QvV4nRVEok8nQxsYGzc7O2v/+4osvCn9PmbCdExcuXJD+MLN+qFQqrnJNURQ6deqUsPujvgeRPvvsM8+1Z5991vfrDx48KDI5Q+fs2bP2obhERLFYLLRyMrQg5c6dO55rOOEbRKvVap5egKNHj3Z9v/X1ddcoChHRSy+95Pv1vN4e0Y3R48ePk67rlM/nKZvN+m4oy65Wq9H09LTd2CkWizQ9PR1yqnbUajVaW1tzXXv11Vd9v/6FF17wXBN9WF4kEqHz589TPB6n+/fv78oDS0dHR10BYb1epytXroSYIjlcvHjRVa6dPn26p44cFup7EOnWrVuea08//XQIKRlOMo06hxakfPrpp55rvCHdZtD7BX7cuHHDMzWrl8qx18KR1xj98MMPu04PTyQSoY2NjaHrfbx3754nQKzX61QoFEJK0X/xGmHf+973fL/+wIEDnmts0CPCiRMn6Ny5c0IboIPm5Zdfdj3/3e9+F1JK5FCpVOzpfw29TIflQX0PIv3jH//wXOukXn/48KHI5AwlWUadQwtSePNJO2lU3bt3T2RyYEixvdF+p2Y1c/36dc+1Thp8jz/+uOfa3//+957SBOHjBa/f+ta3fL8+Eom4htcbZJrONiz279/vem6a5q7+nNmRpGg0KjyIRX0PIrFr/zpdS8cLmsFNllHn0IKUXjPZ3bt3PdeGfT41dIY3BYc3ktEJ58JSos7zLa+3p16vo6fQh6efftrTkFcURYoRI17PXqfpYhvPREQPHjzoOk3ANzo66tmo4G9/+1vf01GpVGhkZMR+hDUi+O6777qesyNNIqC+B1F435NO88I///lPzzWsU/GSYdQ5lCCF12v1/PPPd3SPzc1Nz7VOplfA8ONNweFNq/EryEYEegrbi0QitLm5aTcwNU3jlgNhYBthoqDHLxjs2jDRUy79YNeKPfLII31PQ7lc9ixoP3TokPD3YKG+h27xAtZO8wJvRgTWtHjJMOocSpDCa5B1sjMDr4dcURTXLjXQWjKZdPXihfEIGtvAU1W1p2kMouaxDvM2r0EbHx+n7e1tsiyLtra2pFh8K2oUDD3D/fPkk0+6nssw5TKMvPzBBx+4nneyLbBfqO9BJF4j+amnnvL9et7mN0FMcRwGMow6hxKkfPLJJ55rnUSxf/jDHzzXTp8+3VOaYPiw86DHxsZ6uh+vV7vTHsFmsEf74OI1wtitpruFsyCCwU7tqNfrwrcCb0gmk5RMJrn/1q7DYmVlhWKxWBDJIiJvj3InZ034hfoeRGLzrKIoHe1g+dZbb3mu/fznP+85XcMq7FHn/+3ru/2/ra0t13NFUXz3IpXLZdfBfEQ7PeSidyOBwcceHiYqoHD69re/LfyeMPjQK9dapVKhGzdu0ObmJpmmyV3r9fzzz9PRo0cDGWHgTa368ssvhW/XXS6XaWlpiYh2As7l5WXue7BBbaVSoVgsZk8jPHbsWCBrr9jPvZMRDr9Q34MovPN2OgmsV1ZWPHk+Go1Ksa5RVmGPOvd9JKVWq3kyCW/BKE+5XPaci6AoCl29ehWNAvBgCzMEFADhu3btGqmqSidPnqS1tTVPfdD4nbfffpv27dtHMzMzwudB8xrJQYxmnj9/3v752rVrpGkara+v29caAYuz/spms6Rpmmud0+uvvy48bbw1dk888YTQ90B9DyLx1pnyTo/nyWazdPLkSdc1TdPoT3/6k5C0Dat+jjrz9D1I4U2N8DMXO5vN0vT0tGsuoaIo9PHHH0sxL33QLC4ukmVZoT6ChN2yAOTRrIzXdd1+NJsid+3aNdq3b5/nUNZBkM1mKZPJ2PO66/U6HTlyhM6cOUO1Ws3upXz00UepVqvR3Nwczc/P2/WcoiiUSCRoY2NDeNr+/e9/e66JXjyM+h5E4k25brcrV61Wo2QySfPz867rmqbR2toaAt42mo0690vfp3vxeqt4OzNUKhX68ssv6fbt2/Tuu+96esVVVaWrV6+iwAIuXuWI3WDkMTMzE9iOWH7ouh5Iww/4FhcX6eDBg/TXv/6VfvCDH9D+/fubTq1aX1+nt956y9MD32hkzM3NBZLGb775JpD7zs3N0dzcHGWzWfrzn/9sjxJdv37dDl6+/vpr2rt3r6tRHo/H6dSpU4E1or744gvPNdHvhfq+v5LJpD29MCxBdkDy1ujxAutyuUwPHjygW7duUSqV8iyU13Wd3n//fQQoPjQbde7XFLm+Bym8/amPHDni+/WqqtIbb7xBJ06cEJks2AU6OVwPAMSanJz0VbHNzs7S7OwsxWIxz0no8/PzLQOcXvDOuhGpEawUCgV65513XFPdnAG7YRi0sLAQyP/RKaigzAn1PYjEWw+xZ88e36/XdZ1+8YtfYGe4AdL3IIW3P3UriqLQ/v376cUXXyRd19GTAgCwCywvL9PW1pZnROXixYu0vLwcUqp61wjU2A0DVFWl69evBx6cNLBBmagd6ZxQ34Mo5XLZMyLSjqqqpGkaTU9P06FDh/r23Rp2/ejgaOhrkFKpVDyZzDCMga5wYHe7efMmLS4u9nwfnHY7XERNZdvtZ6dcunSJpqamXNdSqRSdPXt2IKdqVCoVunjxomeEiGgnaDl8+DD99re/DWxKWyuiP0/U9yASbwp3JpMJ5buy2wU96uzU14Xzn332mecaekoAdp+NjY1QN23AepTBMDk56TlMjIi/y4/MGlsKq6pqByi6rlM8Hieinca7rutkmibNz8/T2NgYJZPJgd4ABPV9/w3zhjj/+te/PNdwSvzw62uQcuvWLc+173//+/1MAuxid+/e7en1QY52fOc73wns3hCsIBcQfve73w3s3oOCNw2Jt8tPr4I4R6mxs5Cmaa7Rk8aOXY1t0SuVCm1sbFAikSCinVGVpaUl2rt378AGK6jvQSTeIY4IeodfX4MU3hARMhkEgdfDEsQ8ym4ONuJNBcJc2eHT6dkevJ1rRJ9bMYj8noPQqyDOUfrZz35GS0tLri2F8/m8PUWUXVi+uLhI+XzetWXx0tISzczMCE9b0FDfg0jdnrcDg62vQQrbONN1vZ9vDw7JZJJGRkZCfQQpiPnqvB7zThfy8eB7MPh4f8P//Oc/Pd8XJyEHo18jE7/61a/sn3Vdp/v377v+pl9//bUnPZOTk3Tnzh2KRqP2tUuXLgWeVtEnSaO+B1F4B4/u9vV6YQpi1LmZvgUpyGTQb+xc9s8//7zne/KmnvDydjP4HgwnXqHd6QnmaNT1D28RbhDTOcfHxymRSNjTu9jOk0ZwwvYSRyIRymazlE6nKR6PBxKssnlWRIdLA8o5EIlXlmKzmfAEMercTN+CFN56AByuB0EaGxtzPa9UKj3f8/Dhw55rnax14Z3yjMaof+VymcbGxmhkZIQmJiY6nlIVlBdeeMFzjXdGRDO8vPnjH/+4pzQNC17nQq+V5MOHDz3XeCcri7C4uNh0B0A2OGGdOHGCzp07F0SyAm1ooL4HkXhlKRbN90fY6+H6FqTwGhNPPfWUkHsHNd2oUChQLBazG0UjIyM0NjZGsVisZe95oVAQMh2qkx568GJ77kRMZ+A1Rjc3N32//pNPPnE9V1UV87R9qtVqND09bZ9GXSwWaXp6OuRU7Thw4IDnWidnRPDy5qFDh3pK07DgBXC9LsDmLbwP+3vY74CbtymDiI4cIrH1fbdTk9vVn9lslubm5uixxx6zX/PYY4/R3NwcZbPZlq+dmZnxvJ9z3VBjwwRn22FiYoJWVla6+gx2OzaYV1W16yndvL9dpw8/a8R47cfGa1dWVlo2/pvleadsNksTExOutumZM2eEBxX9GnVuyuoTVVUtIrIfqqoKu3e1WrU0TbPvrWmapeu6/WDfu/FodT/DMOzfUxTF0nXd9R5EZKXT6ab3yOfzlqIort9PJBJNH7z05fN5YZ/RbpTL5TyfqWmaPd+XzU+KoljVatXXa3l5Igzs56Lreijp6EQ+n5f6e+IsMzpNWzQaleLvwSuLevl82b+Z3+9JQ7Va9aRHRN0hw+ddKpVCzce875OoNIiu79PptKfMddbxuq57ytZm/5dSqeSqy5vV75qmWaVSiXuParVqZTIZ13s28lCpVGra5mjct9PvwW5mmqbnMzQMo+v7se27xt+uWdtM1/WO6stqtcotX9j7KIpi5XK5pvfJ5XKePNm4Py9Nzvs2y7fd4LWjRN6/nb4EKbxMJrpScH6QbAHAVryaprXMHM4MwDYi2eCj1X3Y922FzWSZTAYFWY94DZxWfy+/2ArTb7CRyWS6Cm6C+O4E0fALmuxBCtvo9Pu34pWPfv5PogOKZvfMZDJd34/9m3UalItOTwPboG3V4TTM2M9WxOcQVH3vrJd592M7K3nfBdM0XX97Nj+apukJYFqV0fF43JWmUqlkKYpiqapqxeNxK5FIWIZhePJbNBrt+fPYLdh6s5tyhMfv/dgyKBqNtmykO/NPNBp15R9egNSqzGYDhEYeVxTFMgzDSiQSVjwe53YKiGo/8srgfurLuwWVyZyclSGL/ZBb/fGcv9usIHH+f1o17tgKuhXn78Xj8Za/C/6xPQ699MA4dTqaUq1WPa/xGzCx/4deAwpeY7rfBU83qtWqp7JXFCXsZLl0M5rC9rr5/f7zgrZeG/BsWnotq3lp9NsL12jwOV+raVrXaXHet9s0DRu2p1ZE+RhUfe+sm5sFPc78xvveteqAbGDLmVYBljNNzsYjyzRNT/m/W/Ncp3oZoW7FT16wrO7bj63yjfO9W7UdnPlZURRL0zTuSBxv9EZUx0vYo859aZmIrvh4Gn9MXqOFLUiaYQunVlOD/DQ2uw1SZOkZHgZshSlqxKBZA4pX2LA9fJ02BnhDu73gfR9FFmpBck6laDUdIyy8v3Wr4Xe2Au5kKggvAOilXG0WvPbSK8dLo6Iobcs43nRZUdNk2JHQQRhFDIpzJEBUEBhUfe+3Adj4/rF5zNkr3a5Tia03mn1/2fzdqlxnfxedkf6w5UCYQUq7aV5+08iONraqe/2WgWz7VcR32bLCH3UOfOF8pVKhtbU1z/UgDtYjan/AT6vFVleuXLG3YdQ0reUBe84dmXgn64Ic2MXHpmkKWaA6Pj5Oy8vLpCiKfa1YLNLevXvpzJkzVCgUqFAo0MrKCh04cMC18M8wDFpeXu45DX7VajUqFAqUzWZpZmaG+30kIjp58iTFYjHKZrPS7JrFGh8fp+3tbbIsi7a2tkJf7MyKRCK0urrq2v66Xq/Tvn37KBaL0fr6uutv4TyFXNM07ja1QSqXy1QoFOjMmTNNNyEwTZMOHDhAyWSSCoVCzwsz6/U6TU1N2QtIG9+VQqFAyWSSJiYmaGpqyrUlrsjPZnV11fX8jTfe6Pmeg+qll15yPS8Wiz0tnu93fc/z6quvcq//5S9/sX+em5trmZfYeoN3AC/P2bNnm/7b5OSkawv7TjbW2K2y2Sx3a2ze7nxhu3Lliv2zqqottw0fHR115YUPP/zQ13v85je/aZpvI5EIGYZhPy8Wiz2X1eVy2fP597ppSceCjIDy+bynV7HxEL3uotE7xuvJ6GYIrl0vh7MH1M/Qc7uPmnxG4NA5trda1JQvy9rpfW61iI3N8930QnQzktJs/Ua3D+TJzvDmHrd6xOPxjsvCbkdS/OZXP492Q//VatWKx+NN64F2D1VVhaxBaWBHizrZ9GJYsdOQuv28g67v/dbjzTjT46ccdv5f/NTxfnqu2ZEraI7dmMD5aLeu2A/RIynO+/lZc+Q3Lzh/p933h13D0mu9LcOoc2AjKbFYjKamppruA1+v12l+fp727NkjZKvdL774goiInnzyya7v4dwGtN0e8s73EX1SL4i1sLDgep5KpYRt0zc+Pk4bGxuUz+fJMAzPYY+qqlI0GqVMJkP379+nEydOdPwebFp5B0qCXCKRCC0vL5NpmhSPxz1n4SiKQrquUzqdJtM06dy5cx2PEvB6E2U7iyISidC5c+doa2uLTNOkXC5HiUSCdF3n5mNVVUnXdUokElQqlWh7e5vm5uaEpYfdAvb06dN9HbmSkfNkeyKijz76qON79Lu+7xQ7MvzMM8+0fY1zNHR7e7vt7/vJR+y2z6K2fB42Y2NjND8/3/SA0WKxSEeOHPF1lES/ONuBzz33XNvf7yYvtMtjjz/+uOs571y2Tkgx6tz3sCggjSiWFzn6jYSJE7H7ffBgJEUebK9FWFv/doPNa4OUdggOu6ATowKtsfPA8Xnt4O3GJWKrdtF6GUlh6+Juds9rd18/aeomHRAM0SMpndbRfvOC3zZkt+loRpZR5//tOrqRTGPOqKhTSA3D6GlUBuRy6tQpSqVSds/M0tISvfLKKy3XHcmA7QFUFIWOHz8eUmpAJuwpzBgVaC0Wi7menz9/Hp8X7cyPNwzDtT7q8uXLgZ10DwDyk2XUeSiClPX1dSLamQYj6kM8duxYy4VPMFgikQi99957dOTIEftaNBqlra2tEFPV3gcffOB6joYVEO1MAXQuUFZVFcFrC9ls1rX4Wdf1rqZeDquFhQXXIuVUKkWnTp1CWQOwC1UqFVenRZido4Hv7tUPjd21Dh8+LOyed+/eFXYvkMPs7CzF43H7ebFY9PSuyqRcLrsKCsMw0LACIiJ688037Z8VRaGrV6+iQdlEuVx2fc8VRaH3338/xBTJZ3R0lE6fPm0/r9frrjy2G33++ef2z+yasm6x68jQEbp7setFROQFdv3qwYMHu7qPTKPOQxGkNHoUjx492tN9nAs5GwvxYbicO3fOtU1fKpWSMlCp1Wr02muv2T2b/d62GOSVzWbt4FVRFNrc3JRuK2ZZlMtlmp6etr9Hjc8LAZ3X4uKiqw5MpVL2LIVBx04Dv337dtvXOBcyP/roo0LS8emnn9o/O7evh8Hn/O7cvHmz7e8725ii8sK9e/dczx955JGO7yHbqPPABynr6+tkmiapqtpzRT0xMWH/3OwsCRZ25xg8y8vL3EBF1I5fIrz55pv2TjmJRAIBChDRTnkzPz9PRDuVIgKU5tbX17kBCj6v5tbW1lwNpp/85CfSnpnUiUgk4tqti13PxePcrenll1/u6Pebcb6vyJkfED5n+7HTvOB3B8N230XnDCBFUTou62QcdR74IOWPf/wjERH99Kc/7fleP/zhD+2fTdP0LBxiZbNZUlV1aHqbdpPl5WVKJBL281QqRQcOHAhle0yes2fPkq7rlMvlaHFxMezkgCRGR0cpk8lQNBqljY0NNLg5arUaxWIxOnLkiOtw3mKxiM+rjdHRUdrc3LQDlXq9TtPT00MRqDjbCGtray07GNfX113BLXu4I0+9Xm/Z0VWr1VwHOPoJfGBwHDt2zP65Xq9TNptt+rvsmkLna1t58OBBy393HgrZ6dbt0o46930/MYEaW7i12xqtk60LnQdbKYrS9MCgxj0VRWm6XSO2IJZfPp/3HGam67rQA+QAIHilUskyDMNzABy27O5cqVRyfY6KooReL/V6mKNpmq7/U7MD96rVqqtOaJV/2Dre71a2YRyKB26ityC2LPcBoKqqNm2XRqNR3/dk2ybNsHmxk23Ec7mc5/teKpV8vz5IAx2kNDJZu0qok0zG7g1NtHO6aSKRsBKJhGUYhl2AtftDsvusN8uw1WrV9XvdnEoOvclkMp5gRZYvKQC056z4icgyDEPK8z4GRalU8pwgH4/HQztbxtmo7LaRn8lkPHnE+f8xTdP1Pu3aC2zDsFn97Ty5W6YG4G7G5utmnGesKYrS8p5scK9pmqsMqlarnvu1+z6x+YvNs5a1kw+d7+u3k7VarVqGYXjauzKVmwMXpOTzeTtYcGawRhDBe7CFW+N6sz8kG1XyHpqmtSxo2EzT6Llh//i8TKKqaui9VrtVLpezDMOwNE0LOykA0IF0Om1pmmal02mpKtlBxjaqGg2reDze18/Y2cjvNWDKZDKeXmNd113thGaNQRYvSGHvKWsP9W7Fa3MpisJtD/Lace3yXalU4s7OYPOC32CgWRu0cU/2vfwEKIM06jxwQQo7OtHLo1UvSbVatdLptKfg8jMVqFnB1Xg4tfo9BCoAABA20zQ9Dbtm06VEa1fnd8M0TU8HZqPhaBiG70CCPXG+0cnFa6Sm0+nQRqHgv9i/ebNGeqt8126ErVqtWplMxhOYqKpqRaPRpssIeJzvWyqVrHg87hnh1DSto46DQRp1HrEsy6IBkkwmaWlpiYh2Fva89957NDs76+u1hUKBXn/9dXvXJF3XaWNjI7C0AgAADItKpUI3btyg1dVV+uUvf9nx4txhUygUaGpqiojQnoBgjIyM2D+Laq6vrKzQ6uoqvfbaa3To0CEaHR0Vct8gDPSJ8x9//HFHB+BMTk7SpUuX7EIFAAAA/BkdHaUTJ07gUFmAATZI3+GB3YJYVdWuTuicnJx0HboDAAAAAAByGdggJRqNdv1aHKIEAAAAACCvgQ1Snn322VBeCwAAAHD79m37542BGqcAAAFxSURBVFYHOQJ0gz1cejfmsYENUp544olQXgsAAADwzTff2D8Xi8Vd2YiE4Dx8+ND1/M6dOyGlJDwDt7sXAAAAQJgKhQL96Ec/onq9bl8zDIMWFhak3i0JBkOlUqFoNGrvRktEpGkara6u0vj4eIgp6y8EKQAAAAA+OY9C4EGzCnrh3NqaJ5/Pd7Vx1CBCkAIAAAAAAFIZ2DUpAAAAAAAwnBCkAAAAAACAVBCkAAAAAACAVBCkAAAAAACAVBCkAAAAAACAVBCkAAAAAACAVBCkAAAAAACAVBCkAAAAAACAVBCkAAAAAACAVBCkAAAAAACAVBCkAAAAAACAVBCkAAAAAACAVBCkAAAAAACAVBCkAAAAAACAVBCkAAAAAACAVBCkAAAAAACAVBCkAAAAAACAVBCkAAAAAACAVBCkAAAAAACAVBCkAAAAAACAVBCkAAAAAACAVBCkAAAAAACAVBCkAAAAAACAVBCkAAAAAACAVP4PKl8L44Iet80AAAAASUVORK5CYII=;" vertex="1" parent="WIyWlLk6GJQsqaUBKTNV-1">
          <mxGeometry x="31.710000000000036" y="265" width="200.58" height="30" as="geometry" />
        </mxCell>
        <mxCell id="LiQchtuFsr472v_ydP5Z-15" value="" style="strokeWidth=2;html=1;shape=mxgraph.flowchart.annotation_2;align=left;labelPosition=right;pointerEvents=1;" vertex="1" parent="WIyWlLk6GJQsqaUBKTNV-1">
          <mxGeometry x="247" y="230" width="33" height="60" as="geometry" />
        </mxCell>
        <mxCell id="LiQchtuFsr472v_ydP5Z-17" value="&lt;div style=&quot;&quot;&gt;&lt;span style=&quot;background-color: initial;&quot;&gt;P&lt;/span&gt;&lt;sub style=&quot;background-color: initial;&quot;&gt;деп &lt;/sub&gt;&lt;span style=&quot;background-color: initial;&quot;&gt;- Допустимая величина депрессии, Па&lt;/span&gt;&lt;/div&gt;" style="text;html=1;align=left;verticalAlign=middle;resizable=0;points=[];autosize=1;strokeColor=none;fillColor=none;" vertex="1" parent="WIyWlLk6GJQsqaUBKTNV-1">
          <mxGeometry x="283.63" y="205" width="270" height="30" as="geometry" />
        </mxCell>
        <mxCell id="LiQchtuFsr472v_ydP5Z-18" value="&lt;span style=&quot;border-color: var(--border-color); color: rgb(0, 0, 0); font-family: Helvetica; font-size: 12px; font-style: normal; font-variant-ligatures: normal; font-variant-caps: normal; font-weight: 400; letter-spacing: normal; orphans: 2; text-indent: 0px; text-transform: none; widows: 2; word-spacing: 0px; -webkit-text-stroke-width: 0px; background-color: initial; text-decoration-thickness: initial; text-decoration-style: initial; text-decoration-color: initial;&quot;&gt;P&lt;sub&gt;гор&lt;/sub&gt;&lt;/span&gt;&lt;sub style=&quot;border-color: var(--border-color); color: rgb(0, 0, 0); font-family: Helvetica; font-style: normal; font-variant-ligatures: normal; font-variant-caps: normal; font-weight: 400; letter-spacing: normal; orphans: 2; text-indent: 0px; text-transform: none; widows: 2; word-spacing: 0px; -webkit-text-stroke-width: 0px; background-color: initial; text-decoration-thickness: initial; text-decoration-style: initial; text-decoration-color: initial;&quot;&gt;&lt;span&gt;&amp;nbsp;&lt;/span&gt;&lt;/sub&gt;&lt;span style=&quot;border-color: var(--border-color); color: rgb(0, 0, 0); font-family: Helvetica; font-size: 12px; font-style: normal; font-variant-ligatures: normal; font-variant-caps: normal; font-weight: 400; letter-spacing: normal; orphans: 2; text-indent: 0px; text-transform: none; widows: 2; word-spacing: 0px; -webkit-text-stroke-width: 0px; background-color: initial; text-decoration-thickness: initial; text-decoration-style: initial; text-decoration-color: initial;&quot;&gt;- Горное давление, Па&lt;/span&gt;" style="text;whiteSpace=wrap;html=1;align=left;" vertex="1" parent="WIyWlLk6GJQsqaUBKTNV-1">
          <mxGeometry x="283.63" y="225" width="280" height="40" as="geometry" />
        </mxCell>
        <mxCell id="LiQchtuFsr472v_ydP5Z-19" value="&lt;span style=&quot;border-color: var(--border-color); color: rgb(0, 0, 0); font-family: Helvetica; font-size: 12px; font-style: normal; font-variant-ligatures: normal; font-variant-caps: normal; font-weight: 400; letter-spacing: normal; orphans: 2; text-indent: 0px; text-transform: none; widows: 2; word-spacing: 0px; -webkit-text-stroke-width: 0px; background-color: initial; text-decoration-thickness: initial; text-decoration-style: initial; text-decoration-color: initial;&quot;&gt;P&lt;sub&gt;пор&lt;/sub&gt;&lt;/span&gt;&lt;sub style=&quot;border-color: var(--border-color); color: rgb(0, 0, 0); font-family: Helvetica; font-style: normal; font-variant-ligatures: normal; font-variant-caps: normal; font-weight: 400; letter-spacing: normal; orphans: 2; text-indent: 0px; text-transform: none; widows: 2; word-spacing: 0px; -webkit-text-stroke-width: 0px; background-color: initial; text-decoration-thickness: initial; text-decoration-style: initial; text-decoration-color: initial;&quot;&gt;&lt;span&gt;&amp;nbsp;&lt;/span&gt;&lt;/sub&gt;&lt;span style=&quot;border-color: var(--border-color); color: rgb(0, 0, 0); font-family: Helvetica; font-size: 12px; font-style: normal; font-variant-ligatures: normal; font-variant-caps: normal; font-weight: 400; letter-spacing: normal; orphans: 2; text-indent: 0px; text-transform: none; widows: 2; word-spacing: 0px; -webkit-text-stroke-width: 0px; background-color: initial; text-decoration-thickness: initial; text-decoration-style: initial; text-decoration-color: initial;&quot;&gt;- Поровое давление в неустойчивых породах, Па&lt;/span&gt;" style="text;whiteSpace=wrap;html=1;align=left;" vertex="1" parent="WIyWlLk6GJQsqaUBKTNV-1">
          <mxGeometry x="283.63" y="247.25" width="280" height="40" as="geometry" />
        </mxCell>
        <mxCell id="LiQchtuFsr472v_ydP5Z-40" value="" style="rounded=1;whiteSpace=wrap;html=1;absoluteArcSize=1;arcSize=14;strokeWidth=2;" vertex="1" parent="WIyWlLk6GJQsqaUBKTNV-1">
          <mxGeometry x="540" y="196.25" width="230" height="133.5" as="geometry" />
        </mxCell>
        <mxCell id="LiQchtuFsr472v_ydP5Z-41" value="Да" style="text;html=1;align=center;verticalAlign=middle;resizable=0;points=[];autosize=1;strokeColor=none;fillColor=none;" vertex="1" parent="WIyWlLk6GJQsqaUBKTNV-1">
          <mxGeometry x="253.63" y="106.25" width="40" height="30" as="geometry" />
        </mxCell>
        <mxCell id="LiQchtuFsr472v_ydP5Z-42" value="Нет" style="text;html=1;align=center;verticalAlign=middle;resizable=0;points=[];autosize=1;strokeColor=none;fillColor=none;" vertex="1" parent="WIyWlLk6GJQsqaUBKTNV-1">
          <mxGeometry x="503.63" y="106.25" width="40" height="30" as="geometry" />
        </mxCell>
        <mxCell id="LiQchtuFsr472v_ydP5Z-46" value="" style="strokeWidth=2;html=1;shape=mxgraph.flowchart.annotation_2;align=left;labelPosition=right;pointerEvents=1;" vertex="1" parent="WIyWlLk6GJQsqaUBKTNV-1">
          <mxGeometry x="770" y="217.25" width="30" height="82.75" as="geometry" />
        </mxCell>
        <mxCell id="LiQchtuFsr472v_ydP5Z-47" value="P&lt;sub&gt;пл&lt;/sub&gt;&amp;nbsp;-&amp;nbsp;Пластовое давление, Па" style="text;html=1;align=left;verticalAlign=middle;resizable=0;points=[];autosize=1;strokeColor=none;fillColor=none;" vertex="1" parent="WIyWlLk6GJQsqaUBKTNV-1">
          <mxGeometry x="800" y="187.25" width="190" height="30" as="geometry" />
        </mxCell>
        <mxCell id="LiQchtuFsr472v_ydP5Z-48" value="&lt;div style=&quot;&quot;&gt;&lt;span style=&quot;background-color: initial;&quot;&gt;P&lt;sub&gt;р&lt;/sub&gt;&lt;/span&gt;&lt;sub style=&quot;background-color: initial;&quot;&gt;еп&amp;nbsp;&lt;/sub&gt;&lt;span style=&quot;background-color: initial;&quot;&gt;- Допустимая величина репрессии, Па&lt;/span&gt;&lt;/div&gt;" style="text;html=1;align=left;verticalAlign=middle;resizable=0;points=[];autosize=1;strokeColor=none;fillColor=none;" vertex="1" parent="WIyWlLk6GJQsqaUBKTNV-1">
          <mxGeometry x="800" y="214.25" width="260" height="30" as="geometry" />
        </mxCell>
        <mxCell id="LiQchtuFsr472v_ydP5Z-49" value="" style="shape=image;verticalLabelPosition=bottom;labelBackgroundColor=default;verticalAlign=top;aspect=fixed;imageAspect=0;image=data:image/png,iVBORw0KGgoAAAANSUhEUgAAAZUAAABNCAYAAABuQfnNAAAStElEQVR4nO2d32vbVhvHv3l5b7tOUa/KNoadwkYvUla1HV1ykUEir+nFxlrslDIKHXXsjcHYiIvdXowuaZ2xFQqL7ZHCGKyWWQdlzCZpoIU6HWvrlZitdBeV2cXolRWv7R+g9yLv0SRZsmVH/pnnAwIrPjl69MPnOUfnPN9nQFVVFQRBEAThAv/ptAEEQRBE/0BOhSAIgnANcioEQRCEa5BTIQiCIFyDnArhmPn5eQwMDNTcBgcH4fP5kEqloChKp00mCKLNDNDqL8IpiqLg6tWrmJ6edlSe4zj89NNPGBkZabFlBEF0C+RUiIYZGBjQPusfH0VRsLKygjNnzkCWZQAbjqVQKMDj8bTdToIg2g+9/iJcg+d5BAIB3LlzB16vFwBQqVRw+fLlDltGEES7IKdCuA7P8zh16pS2/9tvv3XQGoIg2gk5FaIlHDx4sNMmdIRcLodYLAafz2dYwLBv3z7Mz8932jyCaDnkVIiW8PTp006b0BCxWAwDAwMolUpN/X+xWMTg4CAmJydx/fp1nDlzBqqqolwuIxqNolAoIBKJkGMh+h5yKkRLuH37tvZ57969HbTEGdu3bweAphcUPHv2DJVKBQCwuLiorXjjeR6zs7PaHNOFCxdcsJYguhdyKoTrKIqCRCKh7b/11lsdtMYaRVHg8/lQLBYB/OtUGJIkNTSq2LlzJ+LxOJLJJIaHh6u+9/v9ADYWLjQ7GiKIXoCcCuEapVIJkiThwIEDWq89Go12ZZzK1atXsby8jLGxMaRSKezevRterxeKoiAcDmNqaqqhUYXH48HMzAyCwaDl93qn9fjx403bTxDdyn87bQDR2+hjVsyEQiHMzs620RrnBINBvPjii7h06RKmp6chCAIAwOfzoVKpIJlM4siRIx22kiB6Dwp+JBqmliPhOA6BQADHjh3ryhGKFblcDsePH0elUoEoivj+++/B83zT9RWLRSwvL+PGjRtQFAWFQsHwfT6f75lrQxCNQq+/iE2hqqphW19fx8LCQk80mqurqwiHw5icnMTg4CC8Xi8ePXqEXbt2YX5+vuG5j1wuh6GhIYyNjeHJkyf46KOPkMlkoKoq4vF4i86CILoLev1FbEkkScLU1BQ4jkMymcTu3btx4sQJ3LlzBx988AEikQguXLiA9fX1huu7efOm5WQ9QWwFaKRCtJVSqYShoaG6ascDAwPayiw95qBCs0KyU8bHxyGKIm7evIlgMIgHDx5AlmXwPA9JkpBMJnH69GnH9YXDYQDA/v37LR3KkydPHNfVz9jdO6J/IKdCtBWPx4Nvv/0WACCKYtXrM1EUAQDZbNaycV5aWgIAxONx7X8Y5rmLWvA8j6WlJe0Y5kY/GAxiZmbGcX1stZsV5iXWWxlZlpFMJjttBtFCyKkQm6KZnClO5lsOHDhQ83tzXAnQfOAi8K9TaTaGhOM4AMDy8jIkSdL+nsvlcODAgYZGUf2Mx+NBMBjU4nZ6ndXVVcOIa3V1tdMmdRxyKoRjFEVBKpUy/O3s2bMtCeart/pq9+7drh5vdnYWqqo27Zj0r8qmpqa0RmZychITExPa6AwArly5suUDIF977bVOm0C0CHIqhGMuX75claArkUhoEiTtgM2z7Ny5s23HdMLMzAzS6bQW7wJsRNHn83ksLCwYyrb7mhFEIzAdvGZHXuRUCMfMzMxUzYGY5zVazcOHD8FxXFcm/QoEArh37552TSRJ0l71jYyMtPWa6VM/0yuZ1rFt2zaIoqht27Zt67RJm2azqSpoSTHRU9y6dQsTExOdNoMgAADDw8Pa4pF+4e7du5v6fxqpED3F9evXMTY21mkzCKIvKZVKNVcyOoGcCtH1MLXgXC4HWZYxPj7eYYsIoj9xI/W3I6diFazk8/kMZVKpFPbt26d9PzQ0hFgstuVXuRDVsHf8VsNs9jf9PEAkEkEsFsPx48cRCoUM8yn656uZ5c1Ea2ASOOZAV5/Ph1gshr/++qupenO5HAKBgKHewcFBBAIBw1JuPfWCbK1sr1feLgjXCYqiQJIkhMNhQ5vJro/deQDGuTL9lsvltDKlUgnhcBiDg4Pa94FAoObcWqlUQiwWw9zcnOHvo6OjlsermRZCdcDa2poaCoVUANoWjUa17wRBMHyn3ziOU9fW1pwchtgCyLKser1e7fkQRVH7ThRF7e9er1eVZVlVVdVQtlwuO6prqxOPx7Xrks/n23ZcWZYN91EQBDUajarxeFyNRqOG+6XfGq3X7/er8XhcjcfjhjoFQTA8I6qqqul02rKNCoVC2jOmp1wuq9FoVOU4zlBeEAQ1nU5rZdLpdFWZeuegb0c5jlNFUTScl942O7LZbNX5sHuczWarbNJvzH4zduXttng8bmufI6fC0N+8eDyurq2taScgCIIqiqLlzeM4zvLmEQTRGjrhVGRZNjRodg2YuYPqpDFm9dp1UvV1WjmWcrlc1diay5hJp9OGNsyqfDKZdHQe+vvBnIa5g2RuO+2un6pudObNTkVvr52zsjsPRj6ft3RWjdCQU9EbGQqFVI7jVEEQqm5yPp+vukC1PO9Wweomu7m1s0dKdDedcCr633ytnqyqqlUjFqf12p2L2Wkkk8mqMuaGvV5HV99I2zXw5kbYDv1v325EXS6XDXX5/f6a9pnbVzeclRtOpemJehbApddPYoyMjGBxcbGqPL3zJoj+RJIkTXuN47i6umlOZVr09YqiaCvxw/M8AoGAtv/FF19UlTEnXau3dPbWrVsA/s0R5BYnTpyw/DvP84brIsuy4zoTiQRCoRAWFhYMahQej6eqLf79998btLgxNrX6K5PJ2MppDA8PIxQKGf52586dzRyu51laWrINHnRj64UcJkR/8uWXX2qfnTTAVtpt9ep95513apZ9+eWXtc+yLFd1Yj0ej0Hx4Nq1a7Z1scl0AA2pVTuh1vXRy9c0IpAqimKVcgNjeHjYoOCw2eDGejTtVERRrBvVfPjwYcP+H3/80ezhiA7jRKqetua2XqdUKhkaQLdyyZjrraf3dvDgQcP+w4cPq8p88skn2udMJmP79mRlZQWVSgUcx+HkyZONmG2JvkPZCuo53KGhoZYc14qWRtS/8sorhv379++38nAE0fc044RGR0cdl22m0Xv8+LFh3y2xT3O9jZyHHeYYp5WVFcuRAxshBQKBTaWWbhduC6xuhpY6FfNI5p9//mnl4TSKxSLOnz+PTCYDABAEARcvXqz7emh+fh6RSATJZBLBYLAdphJEz/PLL7+0pV43UjKzeQvWNly7dq3KqayurmojpE8//XTTx9xq9J32V7FYxNjYGCYmJlAulwFsBCqNjo4in8/bOpZSqYRIJAJBEMihWNCqYTvRGE7vA+sgAaj53PcSjSRNq8V7772nOZVMJoOvv/7aMBq5cuUKgI3FBK0SLi0Wi/j1119RLBZRKpWgKEpDcyjdTN/JtJw/fx6VSgVzc3PgeR48z+Ozzz4DAHz++ee2/8fSwV68eLEtdhIE0RhW6aWb4dChQ1pSNWDjFRhDn6Xzww8/dOV4+rrn5+cxNDSEPXv2YHp6WjuW1+tFPB7XMp/2Mm11Knv37m1p/YqiIJPJwOv1GnoYhw4dArCRlc+KXC6H5eVlhEKhlvboauVXd2MjiXOiE7z00kuG/b///rsl9T579syVegHjCiz9CjOmfVVr+XIzFItF7Nq1C5FIBLIsIxQKYW1tDaqqYmlpCZIkYWZmBm+++aZrx+wULXUqZt0v80PiNmy1h9VKB7akztzbURQFx48fB8dxOHfuXEvtI4h+5IUXXjDsuxUHYa73wYMHrtQLAMeOHdM+FwoFra365ptvANjHkjSDoigYGxvT1H/T6TQWFhZcWyXXbbTUqfz555+G/ddff72Vh6sJczTm3s5XX32FSqWC8+fPt3yVB8WpEP3Iq6++athn8xW1YI13LczPszmIzw5Jkuq+KhsZGTHEbqysrGgq2F6v19Vgx8uXL2sORRAEV+t2G3NG1WZGnU07lUePHtUt8/PPP2ufBUEweGbzq6DBwUHtQcjlcgaFTaay6TbFYhFzc3M0OU8Qm4DneUNQoSzLSKVStuXD4bDjaHF9hHmhUKip4AtsOJSpqSm8++67DdW9uLiIS5cuAag999oMN27c0D7X6rgqiuLI2bYS88IEpiqgR1EUgypyFY1oupi1q2rpwpjF5bLZbFUZpkljJXImy7L2v0wRuR5Mt8ZKW4dpDemPw86HNLOIfqPd2l96nSz2mzb/5mVZVv1+v/ab1pe3w6xFhf/rilm1F0z/yqkyur6N0dtdT2iyln1W19qsTGxVf7lcVgVBaEgTTV/OSutMjxPtMYbZBr1WGNMS83q99nbVrL2GYcCGGqiddLRexMxOTJI9+HYnqX+InMAE2TiOs6xLfyHYj4CELol+pBOCklaCqV6vt0oxN51OVzXGtcQdzUKQ+sbRShm9lmCiGfP/Om1rGGaVYqvOs9nher1e7Rrk83lNZp+pKzu5LmaV4nodb/151nIIqmp9vZkKvZNrvCmnwjZ9bgOmXuzkJrntVFRV1XpC+h9SNps11MMUTc29Bn1uBo7jqhQ/CaJX6IRTMXcmrUYBrNE1OxUrtXO787HbvF5vw7mbzE6hkd+7Ve4SQRDqjlasNn1bU6/jbqU8bDUyVNWNe2I+R+aE7M613n2s57SbdiqCIKjJZFL1+/1VwyVRFNVoNFpXWroVToXleBEEQc1ms9qN1+dYYENv/ZDR7/erHMdpDwTrXQiC4PjYBNEtdCpJl6puNNTmnrH5lZWdk6j3Sj0ajVZ1bkVRVJPJZFMdQP0rsEbeWli9lqt3Hul02mA767jqy9rVqy9T67jmtrJeug07WKIyfdvu9/sdOe2mnYobWfZYw203HGvGqaiq8eEzP3Bs2Kh3FuxGmoeQbNRj1QMgiG6mk06F2Np0NKJ+fHwcHMdBlmXEYjGDYuhmAvk8Hg9mZ2extLSEpaUlBINBbdUFk67QR84zWYY33njDUA+Tob59+3bTthDtpZHAULuyNfNv9wgzMzO01JzoCB11KjzP4+bNm/D7/UgkEtixY4f2w/74449dP54kSZaR8yzw6bnnnjOUZ1Larc4/QLjH2tqaYXmr1+tFNpu1bFjX1tYMshgcxyGbzbqmMUUQW5GOa38NDw9DkiSsr68bAvnu3bvn6nEURUE4HKbI+T5neHgYR48e1fZPnTqlyfRYlT1z5oy2v3//ftuyBEE4o+9Uiu04e/YsKpUKkslkw5Hzzz//fIusIgiC6C9aGlHfSthrMp/PV7fs6uoqEokERFG0jJxnTsMsScC0hvQpPgmCIAh7HDuVYrFoUPm1mlx3E70Y5WYzRrL5GbskP2+//TaAakkCJhvTD3LUvUaxWEQ4HMbQ0FBddeZ+mFgniH7BkVMJBALYs2dP1d/n5uawY8cO143K5XKGydZMJoN9+/Y1VVcqlUKhUEA0GrVVBQ0EAhAEAYlEQlslxEY3oVCob9VEuxVJkrBnzx5IkoRLly5BVVWUy2VDp0CfD4MgiC6ik+uZW41d5LxdWb0aAAvYItqLPhjNKj5Ir+9kd0/1MRr17qE+2MyN2CuC2Op0fPVXK+F5Huvr61hfX687Oc/zPBYWFrRVaI8ePaKlpR3g6tWr2merlViHDx8GAFQqFUNZOyKRSM1XZ6Ojo+4ZTxBE55cUE4QevUy4FfpYoidPnrTaHIIgGoScCtFV1Fu+/fTpU+3z9u3b69YXj8drJjbL5/ObtpkgiH8hp0J0FWNjY9pnq4RM+sRv4+PjbbGJIAjnkFMhuoojR45oaV7D4bAhw1wqlUIikQCwkefbnKWOIIjOQ06F6Cp4nsePP/4IYGMyfnJyUptUX1xcRCgUgizLXZ3nmyC2MltGpoXoDRRFwfvvvw9BEJDJZGg0QhA9Bo1UiK7i7NmzKBQKOHr0KDkUguhByKkQXQWT57l//74rEkD1lh3rV5MRBLF5yKkQXQUbnWQyGUN+HfPm8/ksV4cVi0X88MMP2n4mkzFM9usplUr47rvvtP27d+/aliUIwhkDqqqqnTaCIBilUgkTExOQZdlR+Xg8blA+GBgYsCyXz+erEnXZlTXXSRCEc8ipEF2Doijw+XwoFAoIhUJYWFiwLCdJEqampgBsCEuur6+300yCIGpAToXoGsLhsBaHUi6Xa+q16cvSI0wQ3QPNqRBdgz6HTj0BUCZ9TxL4BNFdkFMhugb9EmK9gzGjKAoymQwA4PTp0y23iyAI55BTIbqGc+fOacnZJiYmIEmSwbkoigJJkuDz+SDLMqLRKE2oE0SXQXMqRNchSRKuXbsGWZZRKBQM34miiL179+LkyZMUHEkQXQg5FYIgCMI16PUXQRAE4RrkVAiCIAjXIKdCEARBuMb/AFFXINSkq07jAAAAAElFTkSuQmCC;" vertex="1" parent="WIyWlLk6GJQsqaUBKTNV-1">
          <mxGeometry x="543.63" y="200" width="210.39" height="40" as="geometry" />
        </mxCell>
        <mxCell id="LiQchtuFsr472v_ydP5Z-50" value="" style="shape=image;verticalLabelPosition=bottom;labelBackgroundColor=default;verticalAlign=top;aspect=fixed;imageAspect=0;image=data:image/png,iVBORw0KGgoAAAANSUhEUgAAAdAAAABRCAYAAABixvfJAAASu0lEQVR4nO3d34sbVf8H8Pd+eW5LmcarKlI2ESwWUnS2LZIVKtQJWy8qdEm2Qim0uJvoTVE2ZVevamuz2puCm13p3mmT2IJeuLFrwQUTit2mJYGKgmYoIl4lrtU/YJ6LfWa+M5P5lV87Sfb9gkAmmZw5+TWfmTPnfM6IoigKiIiIqCX/53cFiIiIBhEDKBERURsYQImIiNrAAEpERNQGBlAiIqI2MICS70ZGRlxvY2NjSCaTKJVKfle3J6LRqOtnEAqFEI/Hkcvl/K4uEQEY4TAW8lu1WsW5c+dQLpc9rR+LxYYuiMiyjE8++QSZTMbT+qIoIp/PY3R0tMc1IyI7PAMl34XDYUxOTmrL6XQaiqJot0qlgkQioT2fz+cxPz/vR1V7ZnR0FKdOndKWJUkyfAa1Wg3pdBqCIAAAyuUyYrGYX9UlIjCA0gAIh8NYXFzE0tKS9tjly5fRaDR8rJW1UqmkNbl20+joKGZnZ7G+vq49Vi6XUSgUurodIvKOAZQGxvT0tGH5559/9qkm/gmHw5AkSVt+9OiRj7Uh2tkYQGmg6IPHTvXqq6/6XQUiAgMoDZh+bLbdbk+ePPG7CkQEBlAaII1Gw9BTd//+/T7Wxj/fffeddv/AgQM+1oRoZ2MApYGxsrKi3ZckCYFAwMfa+KNUKmkHEYIg4PDhwz7XiGjn+o/fFSByUyqVcOPGDW2MpCAIWFxc9LlW26tarWJtbQ1XrlzRHvv888935EEEUb9gAKW+k0qlkEqlLJ8TBAHr6+u+JxDwMkzFbh1JknD79m3H166trTluI5vNYmJiwrUORNQ7DKA0EERRxLlz53Dy5Mkde9YVDAYRi8Vw9uxZ3w8giIgBlPpQOp3G7Oys39VwZJcBs1QqYXx83HEdL7ycpRKRv9iJiIiIqA0MoDQUFhYWPM3qEo/Hm15bKBSwZ88e29csLy/78I5aF4/HtToXCgXIsmx4LB6Po1qtWr62UChgbGzMMPuNOU1gJ58x0TBiAKWhMDs7q2UpKhaLhkTsxWIRwNZ1VKtZXCYmJnDhwgUA0F6TTqcBAIlEoimFYL/K5XJa0v1Hjx4hmUzi9OnTKBaLiMViyOfzOHr0aFMyilwuh+PHj2NychL1eh31eh1jY2M4fvy44eChk8+YaBgxgFLfaTfTjluKu9dee83xeXWmE719+/a1VZdOtZtxSa3vzZs38cUXX2BiYgKRSAS5XA6SJGFzcxO3bt3S1pdlGVNTU5AkCbOzswgEAggEArh48SIA4OOPPzaU3+lnTDRMGEDJd9VqFTdv3tSWM5lMT2YZ2b17t+Pzhw4d6vo2vZJlGTdu3NCWy+UylpeX2w6kk5OTTb2V33jjDQDAV199pT2mJqc4c+aMYd1AIIBgMIharWbb7GvF7TMeZvqZePS3aDTqd9WoRxhAyXcHDx40pOjb3NzE8ePHsbCwsG11ePjwoa9DQ5LJZNNk2jMzM3jzzTe7to0XXnih6bEHDx4AAKamppp2/LVaDQDw77//dq0OwywSiTTNXUvDjQGUfKe/lqa/bedQlnK5jHA43HE5kUhEq38rbt++bfkZbNdQFvM1Tf0tEolsSx2GgTp3rdXlgEFkPqsulUp+V6mvMIDSjifLMmq1Go4cOeJ3VWhI+Hk5gLYPAyjteBsbGxAEoStnoP3sp59+AgBDU7V6X32OaNjNz8937YyaAZR2pFKppP15rl69OnRjF616Mqudh06dOqU99sorrwAArl+/blkO51/d2Xbt2gVJkrTbrl27/K5Sx9Tr/t3AAEpD4/vvvwfQfDalLqvPA8Ddu3dx/vx5xONxlMtlvPfee4bXPH78GMDgTl6dyWS08ZiNRgPLy8tYW1tDIpEwXNOMx+OQJAnlchnRaBSFQgGlUgm5XA7RaLSpB2krnzENvnA4jNu3b2u3YWil2djY6F5hCtEQSKfTCgAFgCIIgrK6uqooiqKsrq4qgiBoz6XTacP6giAo2WzWU1mDQK27KIqKKIra+xBFUXvvdq8LBoOG9efm5pRardZUttfPeCeTJEn7PCRJ8rs69D+1Wk37XgAoxWKxo/JGFKWDjNdE1FcWFhaQSqUGIiH/MItGo1hbWwPAiQH6yfz8PC5fvqwtF4vFjnqZe27C9TJAeHl52ZBPMxQKYX5+HrIst11BIqJ+k8vlEI/HDTmU9+zZg2g02nYCjEajoTWd68sNhUJIJpO2HV7cchOb2SV80K8fjUY9leX0PpLJpCEeqDHDKdWjXb5lfWIVWZaRTCYNn1E8HnfsECTLclPwBIDx8XHL7Xkeg+71VLVSqSiJRMJw+js3N6c9p28uMt8EQVAqlUpHp8pE5E5tZmUzam8Ui0VDU7ckSUo6nVbS6bSSSCQMTdlooQlXX64gCEoikVDS6bQyNzdnKDORSDS9NpvNWu5/E4mEoQleVa/Xm8rF/5rt1csZ9XpdyWazTes4qdVqhhghCIIiSZKhOdvpfahWV1eb3o/a1Gq+XGC+mS/HqOzWt7t5/f+0fA1U/+NJp9NKpVLR3pAoiookSZZfpiAIll8mEXWPurNSD26pe1ZXV11PCur1etP+zy2A6ssVRVGp1+uOZVoFn3q93hRYzOWYZbNZw/uxWn9paclTANVfH1frqC+vVqs1fS52wU5Rtk7KzAFUX1+7wGz3PlTFYrGr10BbDqD6SqtHXKIoNv2YisVi0wfmdNRB7TH/ILp9YweIwWHXQkSdq9VqhgDltOM1d1Rx+g/py3Xa+Zv/51bB2xzE3E5Y9AHJLpiZt2vHS6eper1uKCsWiznWzxw7uhGY+yqA2h0xqcxHEV6Oiqg1DKBEvac/OHHb8SuKYtipO/2H9OW6NRvqW/+sTkbMgdspkOi3LQiC7TrtBFCn7cZiMUPscGLeF9mdgJnjjNOBY7cDaMfjQPP5fNOsD6pwONyUWPnevXudbpJ09LlXe3Fj70Ha6RqNhiHR/4kTJ1xfY7dPdCpXnWvVTigU0u7fv3+/6fnR0VGIoqgtf/31147bVjvzqHPhdotTUpIXX3xRu6+fQMKNJElYXFy0fC4cDiMYDGrL3UyU4KajACpJkusMFq+//rph+dGjR51skoaIW+9B3gb/Ngzu3LljWN6/f39PynVLUqCfi9Uu+Lz77rva/Xw+b9sb+M6dO9jc3IQgCDh79qzXKtvST4bQC+pUfHb0BxfbqeeZiJ5//nnD8sOHD3u9SSIaQG7DKzq9tTsv5++//25Y7lY2HnO5bvVPpVKuZR47dsywbA7SqqtXrwLYOlv0crbsN6up+PrBf3q9AfMZ6t9//93rTRIRdU2v0hPqyw0Gg3jrrbdaer0sy03710AggFgshnw+D2CrGdfcpFoqlbQzWHMKS2pNzwMokZ1eNffQYFKv5+9EoVCoa5mjTp8+rQXQfD6PTz/91HCWeePGDQBALBbr2STy1WoVP/74I6rVKmRZRqPRaOma56BgMnkiIp91M8H5xMSEYUJvfTOuvuPSO++807VtqmUvLCwgFArh4MGDmJmZ0bYVDAaRTqddO0oNmm0PoC+99NJ2b3Ko9et1I6JhYT5L61ZqUn25m5ubXSlTpW+2Va93AsDKygqArQ6gneSANatWq3juueeQSqVQq9WQSCRQqVS0nvy5XA6zs7OGjlDDoOcB1Pxje/bZZ3u9SSKirtm3b59h+ZdffulJudVqtSvlAsY5X8vlsrYf/uyzzwAAZ86c6dq2Go0Gjh49qh0EZLNZLC4uDsXUZ256HkDNP7YjR470epM7CseBEvXWgQMHDMvffPON4/qyLGszsTh5+eWXDctffvmlp/osLCy4JquPRCKGsZF37txBoVBArVZDMBjs6gTyKysrWvAURbGvJ6ffu3evYfmPP/7oqLyOAuhvv/3muo7+xyaKouGoxJzxf8+ePdpRWKFQMGTbHxkZ8fTFzM/PG16jZujP5XKGmQHi8bhrU0yhUEA8HjfULx6PWx4p5nK5lppGQ6GQYYYBIupPhw8fNixnMhnbs8VGo4FYLOap3EgkYrhW6VSuKplMIpVK4YMPPnAtX1+P69ev49q1awCADz/80FP9vNL3JnYaEtNoNLQzYL+Ym+N/+OGHpnUajYb3fXOrqYvMqfzcckLq80daTUyspryyygOpT03VSl5PfXLmYrGo5eyVJMmQDsspwb1V7kV97kir923erpk+VyUT6xMNDnOeYaf83+psKuq6Tqn8zPlrrSZ4V8tW971O6VP1zKn97PazTrykvjPPwGJVvpoQX7//dQs/+vWWlpYc121lAnNzHfSft5pbNxgMOpah1dHTWjYVVb9Muylz3GYQUJT//wHZvWn19a1Oz6Svn3nb+kBolddSrZPVc3NzcwoAyw9YnyzZLYAS0eCwmu1E3b/oZ6BSZ2nR/9fddsZ2s4qoM46YD/pbmRrSnGi91f2oeTYWq5Mg/f5Ufb/ZbFYpFotKsVjUpk5TA79+XbsTiVby25rfp9vnbT5o0X+PVkHVSccBVB+I7ObFc/rSeh1A7RI/69+H/ohJ/0ex+rHoj8isgiQDKNFw0k/daHXTn5VaTe9lFyzq9bohybrdTZKklifjMAfAVl5vNfemKIquZ6FWN31LntsJmNUMK4IgWO6P6/V603tUA67de7Wacs7ujNRNRwFUFEVlaWlJicViTafFkiQpc3Nzrk2VvQ6gdk3Mds2x+mZYK/ojKKtmBQZQouGlTkat39/pJ6JW2Z1oOFEvN+l37oIgKLFYrKWdup6+GbeV6STdZnmy2r9ls1nD+1absvXr2pWrX8dpu+Y4YPc5u33eVt9jLBZr6exeURSlo0xEgUAA09PTmJ6ebrsMdViLlw5J3fTMM89o9/U9sfTJ7t2SYT958qT7FSOivhUIBHDp0iVcunTJcb12eq9HIpGujs0EtjrNKG1kd2onK1Q8Hnft6Oml3Fa22+4oAa/foxvfMxEdO3YMgiCgVqthfn7e0D1b7UHba+akzirFZYhHt1Jv0fBzSnjRyrrb9Z8gIne+B9BAIID19XXEYjFkMhk89dRT2s7i/Pnz21IH8zgvom6LRCJYXV01DFuQJAmVSsV2Xf04PlEUUalUun6GQkTt8z2AAlvTA+VyOfz111+GMzyrSWN74emnn9bu7969W7vfrZRdRMBWjtJDhw5py++//75ttpaJiQnD7ByTk5M7IrML0SDpiwDaS//884/l43fv3gUACIJg2DHpMyXdunXL8rVq0mQiItq5ep6JqJe8JDy3Srulz4hx4cIFw3PhcFibMSCVSiGXyxmel2UZ0WgUV65caTpDdUuvRUREw6OlAFqtVg05Hq06/nSTPkA9fPiwrTIymQyWl5e1OsqyjLffflubMcCqI9Di4qJ2/WlqagqhUAjRaBRjY2Pa4+vr601poe7du6fd//bbb5vK1b+HbiaOpu21vLzclIbSawchIhoiXse7uA307Ta7Qbx66uNWY0jV5xKJRNNYIUmSXMdV1et1JZ1OG8ZkiaKopNNpywG65mwc6rZVVgOD2x3bRf7QD8DWD4xXU7jpv1u7/4X+t+iUBlNRjOOGWx0HTUS9N7Qj+r3upIi8UrOtmA/kFMU4YN0p2DGAEg2Poe9ERNQtmUwGwFaPWLPR0VGIoggAuHLliqfyxsfHHZt/U6lU9ypPRF3HAErkgZcEBupUTurciEQ03IYygLI3LHXbrl27XNdRf3f6ZAlOisWiY6ardDrdUZ2JqLeGMoDqx29a9YYlalU4HNYCo9WkwLIso1wuA4Cnid+JaPANXQBdXl7GzMyMtnz58mWMjY35WCMaFh999BGAreFbyWRSG2YlyzJisRiArZR7Fy9e9K2ORLR9hi6ATk9PNzWFbVdKQBpu09PTWqDMZDIIBoMYGRmBKIoIBALIZrO4f/++di2UiIZbR9OZEe0kuVwO+XweS0tLHU3hR0TDYejOQIl6QZZlTE1NAQCDJxEBYAAl8uTPP//U7ndrTk67iQ5UnLCdqL8xgBJ5sHfvXu2+UwKEUChk6GCkVygUsLGxoS1fu3bNNidytVpFPp/Xlm/evMn8yUR9ZkRRFMXvShANgoWFBc/ZgQRBwK+//qp1KCqVShgfH7dc1/wXdFq3WCxyUm2iPsEzUCIPcrkcUqkUBEFApVKxTHxQq9W0qfA2NzcN45EjkYhtwgQzp3UZPIn6BwMokQt9B6JEImGYgF1vdHQUi4uL2jKvYRINNwZQIhf6DkS7d+92XFf/vNu6RDTYGECJXOg7ED1+/NhxXbXZVhAEnDx5sqf1IiJ/MYASuRgdHUU2mwWwlYEomUw2DWWpVquYn5/HzMwMgsEg1tfXmZGIaMixFy6RR7IsY2VlBQ8ePMDGxoZh2rJgMAhRFHHixAkmkyfaIRhAiYiI2sAmXCIiojYwgBIREbWBAZSIiKgN/wWr7Td/aPGTxAAAAABJRU5ErkJggg==;" vertex="1" parent="WIyWlLk6GJQsqaUBKTNV-1">
          <mxGeometry x="543.63" y="242" width="211.94" height="37" as="geometry" />
        </mxCell>
        <mxCell id="LiQchtuFsr472v_ydP5Z-51" value="" style="shape=image;verticalLabelPosition=bottom;labelBackgroundColor=default;verticalAlign=top;aspect=fixed;imageAspect=0;image=data:image/png,iVBORw0KGgoAAAANSUhEUgAAAXwAAAA0CAYAAACJm4N/AAAO6UlEQVR4nO2d32/bVBvHv3n13sJwwxXiYsK9QTAVdeaHRplUpNUZcIOYlFRwManTStKpEogWcFpNqGOSSxkS2pamKtKEhJrCEAjRqGkvdhHfQLMpkUDc1BFCE1c2Wccf4Pei77Fsx0nsxPnVPB8pUuIcn3P82H58fJ4fJ2QYhgGCIAjiyPOfbneAIAiC6Ayk8AmCIAYEUvgEQRADAil8giCIAYEUPkEQxIBACp8gCGJAIIVPEAQxIJDCJ3wTi8UQCoUQiUSg63q3u0MQhEfqKvxIJIJQKOT5Mzw8jEgkgmQyiVKp1KljIDpIJpPB5uYmACCXy+H27dtd7pE/FEVBJBLpdjcIoi7pdBrLy8uB11tX4W9vb8MwDOTzeQiCYPuP4ziIoghZliHLMuLxOIBDJXD16lU899xziEQipPiJnkDXdUQiEVy/fh3ffPNNt7tDEHWZnp7GwcEBhoeHg9Whhke2trYMAOZHFEXXcrIs28pxHGcUi0WvzRB9QDQaNa8BTdO63Z2GFItFg+M4Ix6Pd7srBOGLjY0NA4CxsbERSH2eFb6maZ4UvmEYxurqapXSV1U1kA4ThB9I2RP9DtOnQVzDno224XDY81vD9PQ0eJ43f1cqFUiS5Hl/ggiCUqmE8fFx8DyPmzdvdrs7BNEU09PTiEajSKVSyGQyLdXVNi+dubk52+/NzU3y6CA6hq7reOutt1CpVPDFF190uzsE0RI3btwAx3GYnJyEoihN19M2hf/MM89Ubfvjjz/a1RxB2FhcXISqqhBFEWNjY93uDkG0RDgcxkcffQQAOH/+fNOD57Yp/KeffrpdVRNEXRRFQSqVAnB4cxDEUWBqagoAoKoqrl271lQdbVP4BwcH7aqaIOpy5coV8/uZM2e62BOCCI5wOAxRFAEAV69eRblc9l1H2xT+33//XbXtiSeeaFdzA4WiKEgkEhgaGrLN55XLZSQSCQwPDyMUCmFoaAiJRML19U9RFDNilgXNeQ30yGaz5r715hOz2SwSiURVuVKpZPY/FArh+eefRzqd9iGB2iiKglwuBwAQRdGzs4H1mBi6rmN5edmUZygUQiwWQzabDaSvgwjJuTVeffVV8/tXX33lvwI/Lj3w6JZpGIYRj8dt5QVBaMmdqNuIomg7niA++Xzec/uaphmrq6sGz/OudWxsbBgcx7m2IwiCzV/eeW6sn1quX6qqGrIs12zfazlnnIb1I0mS39NShfXYGtVXq6+GcejOKQiCbzkR1ZCcgyOfz9vc3f3yX/+PiMaUSqUq96FPPvmkHU11jJMnTwZe5yOPPOK57LVr13Ds2DFwHFf1XyaTQSKRQDwex9mzZ/Hw4UN8/fXXZgqEQqGAxcVFLC0tIRKJmG6yZ8+exf3793Hr1i1zVJxKpXD69GnEYjFbGysrKzh+/Lhr+17LJRIJpFIpRKNRjI6O4uDgAKlUCpVKBcDha+rU1BSeeuopz3JxkwXjxIkTNcuVy2VIkgSe5/HPP//Y/tN1HRcuXEChUIAgCAiHw6Z8GKlUChzH4dNPP226r4MAyTlYrLbRSqWCbDaL1157zXsFfp4O8DDCV1W16olNT+ngUFW1SraSJLlGvLKIWPx/NMDKumF9g4lGozXbd0Zc13pLKRaLVW8ZoihWBeCpqmp7M2lllG8d/dTrmxNnoKAkSUY0GrX1VdM01zcjP29pgw7JORicMvS1b7MN8TxvyLJsbG1tGfl83sjn84YkSVXTCrIse6pb0zSzHlmWzY+bkhh0rPJdXV2tWc6pAOuVtd6M9V4VnQ+cejei14e+9QZvNFVYD+d0kde0D045ee1ro4cjYYfkHAzWwZnf+6UlhR+Pxw1RFKuUvCiKhiRJnhR1rSe6FyU1qHhVuM50GPXKOm/GINr3Ws6qqFtR+NY3Gj8vr36OXdO0quu9nfmErHYbQRA85aVSVdXgeb7nBkq9LOd+wmlP9EPTc/jDw8Mth6uzDIbWOTwAeOyxxzA6OopTp05R0EwL+EmHcRR48OBB29sIh8OIxWKmnz9wGFDYjus0nU7j3XffxcbGBs6cOYOZmRmMj4+jUCjUtXNEo1F8+eWXLdlCuk0n5dzv6Lru+V5vi9HWK8ytqFgsYmRkpJtdaUgymcTdu3cDrVOW5Z4/bqKaN954w6aIHj582JZ2Pv74Y/A8bxrQL126hM3NTaysrNQcbCWTSUxMTPgz5PUonZJzv3Hy5EmbcdvPg7BrCl/XdaytrWFnZ6cvRiJ3796t8iBolYWFhUDrIzrDo48+avv922+/Ba5gFUVBpVLBCy+8YG5jN3Umk3FV+NlsFjs7O9jb2wu0L92iE3LuR44dO9b0vl1T+Lu7u7h48WJfKHvgcDEYggBQNZo6depUR9tnbqxWdF3H7Owsvv/++472pZ10W85Hka6tafvjjz/i3Llz0HXdFnXJokP9rPJSLpeRTCYxNDQE4DAOgC3PWC/alCCCQlEU12U/2ZKKbv81i1uMw9tvv40rV64c+SnCdsiZRa6zpS+z2awZ9VsvAr1WhLBVd/ldJtZLf//880/bb195y/xYeOHwxGkFthIW8w9nFnhrxKiXVV6cEXysTlEUbdv7PdLXivU8NPJP9lr2KHjpOL29vOLn2OuV1zTN9KDged7mVWKNS/DqqsxxnMHzfFW7ThdFWZb7Ital1+TMPASZvhFF0dQ/Tu9Dp7+7pmmGIAg23cVcm52r/Fn75HYfsGPx6nraipdOVxR+sVg0RFE0g3GcWAXnxbXM6hsej8dt+1iVyVFx8SSF37geAJ7dEv0qImvwmZvydVMQhmGYAYleg4hYXRsbG4amaabbqVWZ5PP5qtQZvUqvypktI8jzvC2I0Spzp9yZS7oTNuhw/udF4Xvtr1Xh+x3IdmVK599//0Uul0OhUMCbb75Z9T9bMatSqWBlZaVhfVY7wNLSku33/Py8mWFufX09gN4TvYpzjtctgV8Q/Pzzz+b3S5cuuZZxM6z5dZOdn5+HLMtYWFjA448/DlVVbR5tuq7j/PnzWF9fN+sul8tmcrKhoSHPCfF6kU7J+cknnwQAM4UD2z8cDpsLjwDAt99+C+BQxqlUCrOzs1V1nT59GgCQy+Waymbphf39ffP7xMSEr309K/x2zYG7LZQCABcvXgQA30t6uZ1slhO9UCj47B3RaVq5zsbGxmzz27///ntT9dTL0shudgCIx+Nt9wufn5/H/v4+DMPA3t6ebY5+ZmYGc3NztgfAxMQECoUCNE3DnTt38OGHHyKZTDbVtnUuOxKJ+LKrea2/Fp2WM+CuO1g8AADTLfvXX38FALz++utV8++Tk5Pmvu0acKiqan5/+eWXfe3rWeH/8ssvtt/soNvFs88+C8DdI8Ev7Al+FHAqxHpKzc8Iw+njXGtfZzrkWr7Rzv29+lC3+lC2Jn3766+/mqpjdnbW9fh1XUc0GgUACIKApaWlmnWsra2Zdei6jkwmE+g9w9JJT09Pm9tu374NVVUxNzeHcDiMkZERiKLYdO70d955x1QuuVwO4+PjgY5a+0HOAHD8+HHbb3Zd5fN5GIfT4q6fdjykrPcfx3G+3VQ9KXxFUXD58mXbtkqlgkQi0dQF4MWq7PTBJQ4v6MXFRdu29fV115FXuVyumg577733XMuWSqWq87uyslJ1bnVdx/Xr123bLl++7FrO2bZbOeDw2lpbW7NtSyaTTY/0rQpwZ2enqTo4joMgCEgmk1AUBYqiIJ1O48UXX0ShUIAoitje3nYdEZ47dw7RaBSqqoLneQwNDWFmZgYAbD71rVAqlfDZZ5/hxo0btu0//PADAPtbM8ufvru767sd52CrUqk0l4O9Br0u50Y0+wYZVJvOjLae8GocaPTx6nnAYB40tfZjBh6rl0I9UMcQ5LeuXsTLuWBGHy/nyzCqjWhuH2Z88tK+n356advvNeUmKy/GTGdfNE0zZFm2ZX3lOM6IRqMtZW30a5xzQ9M0g+d515w6bvUz42YzslxdXTU4jjM4jjMkSWrZqN6rcmb9qnVsTIbME4o5ldSTxdbWlu0cOe/RZvtrNSI3kyvJn09PgDAh1rIy+71Q6yl8ZoXvB9c1onWsisWLa69f75FmCULhR6PRmt5m9RR+EB5qcPGW8UOvyrmRwmeeN+xasrpZ1rq+nHIKQuFbE8o1m0a8a4FXU1NT4DgOhULB1TD73Xffged5c+Fe4HCqIBaLIRaL1XzldzME3bp1CxzH4YMPPvBVF9GfjI2NQZIkAIfnvleweldYyWQyiEQiDR0U0uk0Hjx4YJu2ssI83qyv/ffu3QMAvPTSS8102YTdI+Pj4y3V0wmalXMul6vSBcwuIAiCOYXCbCMAMDk5ieXlZXO6knlJjY6OBnU4Jru7u6hUKuA4Du+//35zlTT1mAgIq58tG4FYgyGcr63WnO3OEQvbznGc+aS0pl52Ponr1UX0PywwBh5GTp0YedYLCGKjtnrrEBSLxaogIyfsmFm5WoFazSDLssFxXEv+/r0qZ2u/BEEwp0rYYk5uush6fTk/zlkLa/3OPln72+g8sWnwVt4Qu6rwDePwgK3zUizPvtv8FMvz7Zbrm+2/tbVlOxG15gPr1UUcDVjUdSNF2W5F5KYUrO00mr5kysXLjW4d5LC591aDstiUaKurTvWqnK1TOtbIfZYFoJZ+YDYIVp4tCmWVdy2blrU/tfprhQ1QWx2cdl3hB0U7Rw1E/8KUfr3RU6fmlvsNVVUNSZJqGon90qtybjSH323YW0AQNsiuzeETRCcYGRnBnTt3UCgUkEgkut2dviIajeLEiRPY398/8knZepVSqYTx8XGsrq62vOAU0MVsmQTRKUZGRszAwUgkUmWYu3//vu13u0Li+429vb3mfL1rQHL2RzqdxoULF/DTTz/VNNT7hRQ+MRCEw2HcvHkTCwsLZoAOcDiC+vzzz21lJUkiZRQwJGd/ZDIZHBwcYHt7O9iI3QCmmLrOUcyISbSXWgYz54dojV6Xc72MmEeRkGEYRnCPj85Ta8GAPj8sgiDajKIoeOWVV6q2s5QOR5G+V/gEQRCEN2gOnyAIYkAghU8QBDEgkMInCIIYEEjhEwRBDAik8AmCIAaE/wEBbOAgH9GdTQAAAABJRU5ErkJggg==;" vertex="1" parent="WIyWlLk6GJQsqaUBKTNV-1">
          <mxGeometry x="543.63" y="285.25" width="197.3" height="27" as="geometry" />
        </mxCell>
        <mxCell id="LiQchtuFsr472v_ydP5Z-52" value="g - Ускорение свободного падения, м/c&lt;sup&gt;2&lt;/sup&gt;" style="text;html=1;align=left;verticalAlign=middle;resizable=0;points=[];autosize=1;strokeColor=none;fillColor=none;" vertex="1" parent="WIyWlLk6GJQsqaUBKTNV-1">
          <mxGeometry x="283.63" y="282.25" width="250" height="30" as="geometry" />
        </mxCell>
        <mxCell id="LiQchtuFsr472v_ydP5Z-53" value="H - Глубина бурения, м" style="text;html=1;align=left;verticalAlign=middle;resizable=0;points=[];autosize=1;strokeColor=none;fillColor=none;" vertex="1" parent="WIyWlLk6GJQsqaUBKTNV-1">
          <mxGeometry x="283.63" y="305" width="150" height="30" as="geometry" />
        </mxCell>
        <mxCell id="LiQchtuFsr472v_ydP5Z-54" value="g - Ускорение свободного падения, м/c&lt;sup&gt;2&lt;/sup&gt;" style="text;html=1;align=left;verticalAlign=middle;resizable=0;points=[];autosize=1;strokeColor=none;fillColor=none;" vertex="1" parent="WIyWlLk6GJQsqaUBKTNV-1">
          <mxGeometry x="800" y="259.5" width="250" height="30" as="geometry" />
        </mxCell>
        <mxCell id="LiQchtuFsr472v_ydP5Z-55" value="H - Глубина бурения, м" style="text;html=1;align=left;verticalAlign=middle;resizable=0;points=[];autosize=1;strokeColor=none;fillColor=none;" vertex="1" parent="WIyWlLk6GJQsqaUBKTNV-1">
          <mxGeometry x="800" y="286" width="150" height="30" as="geometry" />
        </mxCell>
        <mxCell id="LiQchtuFsr472v_ydP5Z-56" value="a - Коэффициент запаса" style="text;html=1;align=left;verticalAlign=middle;resizable=0;points=[];autosize=1;strokeColor=none;fillColor=none;" vertex="1" parent="WIyWlLk6GJQsqaUBKTNV-1">
          <mxGeometry x="800" y="237.25" width="160" height="30" as="geometry" />
        </mxCell>
        <mxCell id="LiQchtuFsr472v_ydP5Z-57" value="deviant -&amp;nbsp;Допустимое относительное&lt;br&gt;&amp;nbsp;отклонение плотностей&amp;nbsp;" style="text;html=1;align=left;verticalAlign=middle;resizable=0;points=[];autosize=1;strokeColor=none;fillColor=none;" vertex="1" parent="WIyWlLk6GJQsqaUBKTNV-1">
          <mxGeometry x="800" y="307.25" width="230" height="40" as="geometry" />
        </mxCell>
        <mxCell id="LiQchtuFsr472v_ydP5Z-64" value="Вывод:&lt;br&gt;P&lt;span style=&quot;font-size: 10px;&quot;&gt;&lt;sub&gt;б.р.&lt;/sub&gt;- Плотность бурового раствора&lt;/span&gt;" style="shape=parallelogram;html=1;strokeWidth=2;perimeter=parallelogramPerimeter;whiteSpace=wrap;rounded=1;arcSize=12;size=0.23;" vertex="1" parent="WIyWlLk6GJQsqaUBKTNV-1">
          <mxGeometry x="265.76" y="440" width="255.74" height="70" as="geometry" />
        </mxCell>
        <mxCell id="LiQchtuFsr472v_ydP5Z-70" value="" style="line;strokeWidth=2;direction=south;html=1;" vertex="1" parent="WIyWlLk6GJQsqaUBKTNV-1">
          <mxGeometry x="119" y="305" width="10" height="85" as="geometry" />
        </mxCell>
        <mxCell id="LiQchtuFsr472v_ydP5Z-71" value="" style="line;strokeWidth=2;direction=south;html=1;" vertex="1" parent="WIyWlLk6GJQsqaUBKTNV-1">
          <mxGeometry x="644.6" y="329" width="10" height="61" as="geometry" />
        </mxCell>
        <mxCell id="LiQchtuFsr472v_ydP5Z-73" value="" style="line;strokeWidth=2;html=1;" vertex="1" parent="WIyWlLk6GJQsqaUBKTNV-1">
          <mxGeometry x="123.63" y="385" width="526.37" height="10" as="geometry" />
        </mxCell>
        <mxCell id="LiQchtuFsr472v_ydP5Z-77" value="" style="endArrow=classic;html=1;rounded=0;exitX=0.517;exitY=0.76;exitDx=0;exitDy=0;exitPerimeter=0;" edge="1" parent="WIyWlLk6GJQsqaUBKTNV-1" source="LiQchtuFsr472v_ydP5Z-73">
          <mxGeometry width="50" height="50" relative="1" as="geometry">
            <mxPoint x="170" y="490" as="sourcePoint" />
            <mxPoint x="396" y="440" as="targetPoint" />
          </mxGeometry>
        </mxCell>
      </root>
    </mxGraphModel>
  </diagram>
</mxfile>
